<svg version="1.1" xmlns="http://www.w3.org/2000/svg" xmlns:xlink="http://www.w3.org/1999/xlink" width="512" height="512"><defs><clipPath id="clip-1"><path d="M-7.29671,203.99653c-11.57266,-11.57266 -11.57266,-30.33567 0,-41.90834l195.7531,-195.75309c11.57267,-11.57266 30.33567,-11.57266 41.90834,0l195.75311,195.75311c11.57267,11.57267 11.57267,30.33567 0,41.90833l-195.7531,195.7531c-11.57266,11.57266 -30.33567,11.57266 -41.90834,0z" id="clip-1" fill="none" stroke-width="1" stroke-miterlimit="10"/></clipPath></defs><g transform="translate(46.58944,76.9576)"><g data-paper-data="{&quot;isPaintingLayer&quot;:true}" fill="none" fill-rule="nonzero" stroke="none" stroke-width="none" stroke-linecap="butt" stroke-linejoin="miter" stroke-miterlimit="none" stroke-dasharray="" stroke-dashoffset="0" font-family="none" font-weight="none" font-size="none" text-anchor="none" style="mix-blend-mode: normal"><g data-paper-data="{&quot;origPos&quot;:null}" id="layer7" stroke-miterlimit="10" visibility="hidden"><path d="M500,12.9576v-48h48v48z" id="rect6284" fill="#eeeeec" stroke-width="2"/><path d="M500,76.9576v-32h32v32z" id="rect6592" fill="#eeeeec" stroke-width="2"/><path d="M501,124.01644v-22h22v22z" id="rect6749" fill="#eeeeec" stroke-width="2"/><path d="M500,164.9576v-16h16v16z" id="rect6833" fill="#eeeeec" stroke-width="2"/><path d="M500,124.9576v-24h24v24z" id="rect8104" fill="#eeeeec" stroke-width="2"/><text transform="translate(-68,160.9576)" font-size="18.3013" xml:space="preserve" id="context" fill="#000000" fill-rule="nonzero" stroke="none" stroke-width="1" stroke-linecap="butt" stroke-linejoin="miter" stroke-miterlimit="10" stroke-dasharray="" stroke-dashoffset="0" font-family="Cantarell" font-weight="normal" text-anchor="start" style="mix-blend-mode: normal"><tspan x="0" dy="0">mimetypes</tspan></text><text transform="translate(-68,160.9576)" font-size="18.3013" xml:space="preserve" id="text3021" fill="#000000" fill-rule="nonzero" stroke="none" stroke-width="1" stroke-linecap="butt" stroke-linejoin="miter" stroke-miterlimit="10" stroke-dasharray="" stroke-dashoffset="0" font-family="Cantarell" font-weight="bold" text-anchor="start" style="mix-blend-mode: normal"><tspan x="0" dy="0">application-x-executable</tspan></text><path d="M-44,436.9576v-512h512v512z" id="rect13805" fill="#eeeeec" stroke-width="2"/><path d="M-8,-75.0424v476h439.875v-476h36v512h-511.875v-512z" id="path13807" fill="#729fcf" stroke-width="2" opacity="0.4"/></g><path d="M-9.09397,203.19923c-10.58004,-10.58004 -10.58004,-27.73367 0,-38.31371l199.34773,-199.34773c10.58004,-10.58004 27.73367,-10.58004 38.31371,0l199.34773,199.34773c10.58004,10.58004 10.58004,27.73367 0,38.31371l-199.34773,199.34773c-10.58004,10.58004 -27.73366,10.58004 -38.3137,0z" data-paper-data="{&quot;origPos&quot;:null}" id="rect18571-60" fill="#000000" stroke-width="6.51673" stroke-miterlimit="4" opacity="0.4"/><g data-paper-data="{&quot;origPos&quot;:null}" id="g1836"><g id="g18818"><g id="g18590"><g clip-path="url(#clip-1)" id="g18681"><path d="M-22.59401,188.69925c-3.12419,-3.12419 -3.12419,-8.18952 0,-11.31372l226.34772,-226.34772c3.12419,-3.12419 8.18952,-3.12419 11.31372,0l226.34773,226.34772c3.12419,3.12419 3.12419,8.18952 0,11.31372l-226.34773,226.34772c-3.12419,3.12419 -8.18952,3.12419 -11.31372,0z" id="rect18571" fill="#3584e4" stroke-width="8.22095" stroke-miterlimit="4"/><path d="M-27.6587,-650.40426v0v0z" id="path18706" fill="#f66151" stroke-width="7.03712" stroke-miterlimit="4"/><path d="M-27.6587,-650.40426v0v0z" id="path18708" fill="#f66151" stroke-width="7.03712" stroke-miterlimit="4"/><path d="M351.02236,66.2842c9.40176,0.46507 18.7554,1.63465 27.98221,3.49887l1.71207,29.38403c7.62386,1.91281 15.09658,4.38419 22.3576,7.3941l18.9909,-21.97553c8.51257,4.01575 16.712,8.66424 24.52931,13.90635l-9.67499,27.8357c6.29977,4.69213 12.24586,9.84131 17.79014,15.40585l25.99723,-13.05606c6.31337,6.98384 12.09398,14.43141 17.29318,22.28005l-19.54244,21.96407c4.00511,6.75055 7.50862,13.78636 10.48219,21.05057l29.08241,-2.11714c3.13833,8.87816 5.60613,17.97927 7.38263,27.2267l-26.39363,12.78029c1.08403,7.33785 1.65706,14.74213 1.71495,22.1594c-0.02019,0.44055 -0.0422,0.88103 -0.06603,1.3214l27.62313,9.15504c-0.46507,9.40175 -1.63464,18.75539 -3.49886,27.9822l-29.38403,1.71208c-1.91282,7.62386 -4.3842,15.09659 -7.39413,22.35761l21.97555,18.9909c-4.01576,8.51257 -8.66424,16.71201 -13.90636,24.52932l-27.83569,-9.67498c-4.69213,6.29977 -9.84132,12.24584 -15.40587,17.79012l13.05607,25.99723c-6.98384,6.31338 -14.43142,12.09399 -22.28006,17.29318l-21.96406,-19.54244c-6.75056,4.00511 -13.78637,7.50862 -21.05058,10.48218l2.11714,29.08242c-8.87816,3.13834 -17.97927,5.60615 -27.2267,7.38265l-12.7803,-26.39364c-7.33785,1.08402 -14.74214,1.65706 -22.1594,1.71494c-0.44056,-0.02019 -0.88103,-0.0422 -1.32141,-0.06603l-9.15505,27.62312c-9.40175,-0.46508 -18.75538,-1.63465 -27.98219,-3.49887l-1.71209,-29.38401c-7.62386,-1.91282 -15.09658,-4.3842 -22.3576,-7.39414l-18.99091,21.97555c-8.51258,-4.01576 -16.71201,-8.66424 -24.52932,-13.90637l9.675,-27.8357c-6.29977,-4.69213 -12.24586,-9.84131 -17.79014,-15.40585l-25.99723,13.05606c-6.31337,-6.98384 -12.09398,-14.43141 -17.29317,-22.28005l19.54243,-21.96407c-4.00511,-6.75055 -7.50861,-13.78636 -10.48218,-21.05057l-29.08243,2.11713c-3.13833,-8.87816 -5.60614,-17.97927 -7.38263,-27.2267l26.39364,-12.7803c-1.08402,-7.33785 -1.65705,-14.74214 -1.71493,-22.1594c0.02019,-0.44056 0.0422,-0.88103 0.06603,-1.32141l-27.62313,-9.15504c0.46508,-9.40175 1.63464,-18.75537 3.49885,-27.98217l29.38404,-1.71207c1.91281,-7.62386 4.3842,-15.09658 7.39411,-22.35761l-21.97554,-18.9909c4.01576,-8.51257 8.66425,-16.71201 13.90637,-24.52932l27.83568,9.675c4.69214,-6.29978 9.84131,-12.24586 15.40587,-17.79014l-13.05606,-25.99723c6.98384,-6.31337 14.43141,-12.09399 22.28004,-17.29319l21.96406,19.54247c6.75055,-4.00511 13.78636,-7.50861 21.05057,-10.48219l-2.11713,-29.08242c8.87816,-3.13834 17.97928,-5.60615 27.22671,-7.38265l12.78027,26.39364c7.33785,-1.08403 14.74214,-1.65705 22.15941,-1.71495c0.44056,0.02019 0.88103,0.0422 1.32142,0.06603l9.15504,-27.62313zM223.00687,254.0215c0.00059,64.91477 52.62426,117.53845 117.53904,117.53904c64.91478,-0.00059 117.53845,-52.62426 117.53904,-117.53904c-0.00059,-64.91478 -52.62426,-117.53845 -117.53904,-117.53904c-64.91478,0.00059 -117.53845,52.62426 -117.53904,117.53904z" id="path18717-4" fill="#98c1f1" stroke-width="7.03712" stroke-miterlimit="4"/><path d="M20.26293,-82.47148c9.40176,0.46507 18.7554,1.63464 27.98221,3.49886l1.71207,29.38404c7.62386,1.91282 15.09658,4.38418 22.35762,7.3941l18.9909,-21.97553c8.51257,4.01575 16.712,8.66424 24.52931,13.90636l-9.675,27.8357c6.29977,4.69213 12.24587,9.84131 17.79015,15.40586l25.99723,-13.05606c6.31337,6.98384 12.09398,14.43141 17.29318,22.28004l-19.54245,21.96407c4.00511,6.75056 7.50861,13.78638 10.4822,21.05059l29.08241,-2.11714c3.13834,8.87816 5.60613,17.97926 7.38262,27.2267l-26.39363,12.7803c1.08402,7.33785 1.65706,14.74213 1.71495,22.1594c-0.02019,0.44056 -0.04223,0.88103 -0.06602,1.3214l27.62313,9.15504c-0.46508,9.40176 -1.63464,18.7554 -3.49886,27.9822l-29.38403,1.71208c-1.91281,7.62386 -4.38421,15.09657 -7.39413,22.3576l21.97555,18.9909c-4.01575,8.51257 -8.66425,16.71201 -13.90637,24.52933l-27.83569,-9.67499c-4.69213,6.29978 -9.84131,12.24586 -15.40587,17.79013l13.05607,25.99723c-6.98384,6.31338 -14.43141,12.09398 -22.28005,17.29318l-21.96406,-19.54244c-6.75055,4.00511 -13.78636,7.50862 -21.05057,10.48219l2.11714,29.08241c-8.87817,3.13835 -17.97929,5.60616 -27.22672,7.38265l-12.78029,-26.39364c-7.33785,1.08402 -14.74214,1.65706 -22.1594,1.71494c-0.44056,-0.02019 -0.88104,-0.04223 -1.32141,-0.06603l-9.15504,27.62313c-9.40176,-0.46508 -18.75539,-1.63464 -27.98219,-3.49887l-1.71209,-29.38403c-7.62386,-1.91282 -15.09658,-4.3842 -22.35761,-7.39412l-18.99091,21.97554c-8.51257,-4.01575 -16.712,-8.66425 -24.52931,-13.90637l9.675,-27.8357c-6.29977,-4.69213 -12.24586,-9.84131 -17.79014,-15.40586l-25.99721,13.05606c-6.31337,-6.98384 -12.09398,-14.43142 -17.29318,-22.28004l19.54244,-21.96407c-4.00511,-6.75055 -7.50861,-13.78637 -10.48218,-21.05057l-29.08243,2.11713c-3.13834,-8.87816 -5.60613,-17.97927 -7.38262,-27.2267l26.39363,-12.7803c-1.08402,-7.33785 -1.65705,-14.74213 -1.71493,-22.15939c0.02019,-0.44056 0.04223,-0.88104 0.06603,-1.32141l-27.62313,-9.15504c0.46508,-9.40175 1.63464,-18.75537 3.49885,-27.98217l29.38404,-1.71207c1.91281,-7.62386 4.3842,-15.09658 7.39411,-22.3576l-21.97554,-18.9909c4.01575,-8.51257 8.66424,-16.71201 13.90636,-24.52932l27.83567,9.675c4.69214,-6.29977 9.84131,-12.24586 15.40587,-17.79014l-13.05606,-25.99723c6.98384,-6.31338 14.43141,-12.09399 22.28005,-17.29318l21.96406,19.54247c6.75055,-4.00511 13.78636,-7.50861 21.05057,-10.48219l-2.11713,-29.08242c8.87816,-3.13835 17.97928,-5.60615 27.22671,-7.38264l12.78028,26.39364c7.33785,-1.08402 14.74215,-1.65707 22.15942,-1.71495c0.44056,0.02019 0.88104,0.04223 1.32141,0.06603l9.15504,-27.62312z" id="path18758" fill="#1a5fb4" stroke-width="7.03712" stroke-miterlimit="4"/></g></g><path d="M-5.62069,181.6672l192.40625,192.4064c12.53559,12.5356 32.71441,12.5356 45.25,0l192.40624,-192.4064c3.142,-3.1416 5.49556,-6.7628 7.06252,-10.6248c4.68468,11.5464 2.33108,25.2312 -7.06252,34.6248l-192.40624,192.4064c-12.53559,12.5356 -32.71441,12.5356 -45.25,0l-192.40625,-192.4064c-9.39361,-9.3936 -11.74718,-23.0784 -7.0625,-34.6248c1.56694,3.862 3.92051,7.4832 7.0625,10.6248z" id="rect18571-6" fill="#1a5fb4" stroke-width="1.62918" stroke-miterlimit="4" opacity="0.534"/></g><path d="M-46.58944,435.0424v-512h512v512z" id="rect9125-7-2" fill="none" stroke-width="1.25" stroke-miterlimit="4"/></g></g></g></svg>